<svg xmlns="http://www.w3.org/2000/svg" viewBox="0 0 488.27 123.76"><defs><style>.cls-1{fill:#008000;}</style></defs><title>linkedIn</title><g id="Layer_2" data-name="Layer 2"><g id="Layer_5" data-name="Layer 5"><path class="cls-1" d="M0,19.53H18.83V90.4H52V103H0Z"/><path class="cls-1" d="M78.67,28.82c0,5.2-3.84,9.42-10.16,9.42-5.94,0-9.79-4.22-9.79-9.42s4-9.42,10-9.42S78.55,23.49,78.67,28.82ZM59.22,103V46.74H78.05V103Z"/><path class="cls-1" d="M89.82,65c0-7.56-.25-12.8-.5-18.26H106.5l0,7.36h.37a21.75,21.75,0,0,1,18.71-9.79c12.39,0,21.68,8.3,21.68,26.14V103H128.48V72.68c0-7.81-2.73-13.13-9.54-13.13-5.21,0-8.31,3.59-9.67,7.06a13.69,13.69,0,0,0-.62,4.71V103H89.82Z"/><path class="cls-1" d="M177.91,71.19h.24a85,85,0,0,1,4.34-7.31l12.27-17.14h22.67L195.75,70.2,220.53,103H197.36L182.62,81.35l-4.71,6V103H159.08v-88h18.83V71.19Z"/><path class="cls-1" d="M235.64,82c.5,7.81,8.3,11.52,17.1,11.52a50.06,50.06,0,0,0,16.73-2.6l2.48,9.54c-6.2,2.6-13.76,3.84-21.93,3.84-20.57,0-32.34-8.67-32.34-27.63,0-15.36,9.54-30.18,30.6-30.18,19.58,0,27,13.08,27,28.08a44.41,44.41,0,0,1-.62,7.43Zm22.18-12.88c0-4.59-2-12.27-10.65-12.27-7.93,0-11.16,7.31-11.65,12.27Z"/><path class="cls-1" d="M343,15.07v73.1c0,6.81.25,10.77.49,14.86H326.79l-.74-8.79h-.38c-3.71,6.68-11.15,10.15-18.95,10.15-14.38,0-25.9-9-25.9-27.87C280.7,56.08,293.46,44.18,308,44.18c7.55,0,13.25,2.73,16,6.82h.25V15.07ZM324.19,71.32a16.79,16.79,0,0,0-.25-3.47,11.32,11.32,0,0,0-11-9.17c-8.67,0-13,7.68-13,17.22,0,10.28,5.08,16.73,12.89,16.73a11.17,11.17,0,0,0,11-9,25.29,25.29,0,0,0,.37-4.33V71.32Z"/><path class="cls-1" d="M483.23,0H369.55a5.06,5.06,0,0,0-5,5V118.72a5.06,5.06,0,0,0,5,5H483.23a5.06,5.06,0,0,0,5-5V5A5.06,5.06,0,0,0,483.23,0ZM404.37,101H387.2V45.6h17.17Zm-8.44-61.5c-5.43,0-8.93-3.84-8.93-8.59s3.61-8.59,9.15-8.59,8.93,3.73,9,8.59S401.69,39.47,395.93,39.47ZM468.08,101H450.9V71.39c0-7.12-2.49-12-8.7-12-4.75,0-7.58,3.27-8.82,6.44a12.41,12.41,0,0,0-.56,4.29V101H415.64V64.38c0-6.89-.23-13.81-.45-18.78h17v8.84h.59c2.26-3.62,6.28-8.93,15.55-8.93,11.3,0,19.78,7.57,19.78,23.84V101Z"/></g></g></svg>