<svg xmlns="http://www.w3.org/2000/svg" viewBox="0 0 512 147"><defs><style>.cls-1{fill:#3c0;}.cls-2{fill:#fff;}</style></defs><title>linkedIn-green</title><g id="Layer_2" data-name="Layer 2"><g id="Layer_5" data-name="Layer 5"><rect class="cls-1" width="512" height="147"/><path class="cls-2" d="M10.83,31H29.66v70.87h33.2v12.64h-52Z"/><path class="cls-2" d="M89.5,40.26c0,5.2-3.84,9.42-10.16,9.42-6,0-9.79-4.22-9.79-9.42s4-9.42,10-9.42S89.38,34.93,89.5,40.26ZM70.05,114.47V58.18H88.88v56.29Z"/><path class="cls-2" d="M100.65,76.44c0-7.56-.25-12.81-.5-18.26h17.18l0,7.35h.38a21.74,21.74,0,0,1,18.7-9.78c12.39,0,21.69,8.3,21.69,26.14v32.58H139.3V84.12c0-7.81-2.72-13.13-9.54-13.13-5.2,0-8.3,3.59-9.66,7.06a13.45,13.45,0,0,0-.62,4.71v31.71H100.65Z"/><path class="cls-2" d="M188.74,82.63H189a82.49,82.49,0,0,1,4.34-7.31l12.27-17.14h22.67L206.58,81.64l24.77,32.83H208.19L193.44,92.79l-4.7,5.95v15.73H169.9v-88h18.84V82.63Z"/><path class="cls-2" d="M246.47,93.41c.49,7.81,8.3,11.52,17.1,11.52a50,50,0,0,0,16.72-2.6l2.48,9.54c-6.19,2.6-13.75,3.84-21.93,3.84-20.56,0-32.33-8.67-32.33-27.63,0-15.36,9.54-30.19,30.6-30.19,19.57,0,27,13.09,27,28.09a44.41,44.41,0,0,1-.62,7.43Zm22.18-12.89c0-4.58-2-12.26-10.66-12.26-7.93,0-11.15,7.31-11.64,12.26Z"/><path class="cls-2" d="M353.85,26.51v73.1c0,6.81.24,10.77.49,14.86H337.61l-.74-8.8h-.37c-3.72,6.69-11.15,10.16-19,10.16-14.37,0-25.89-9-25.89-27.87-.12-20.44,12.64-32.34,27.13-32.34,7.56,0,13.26,2.73,16,6.82H335V26.51ZM335,82.76a17.43,17.43,0,0,0-.24-3.47,11.33,11.33,0,0,0-11-9.17c-8.67,0-13,7.68-13,17.22,0,10.28,5.08,16.73,12.89,16.73a11.15,11.15,0,0,0,11-9,24.35,24.35,0,0,0,.37-4.34V82.76Z"/><path class="cls-2" d="M494.05,11.44H380.38a5.05,5.05,0,0,0-5,5V130.16a5.05,5.05,0,0,0,5,5H494.05a5.05,5.05,0,0,0,5-5V16.48A5.05,5.05,0,0,0,494.05,11.44Zm-78.85,101H398V57H415.2Zm-8.45-61.5c-5.42,0-8.93-3.85-8.93-8.59s3.62-8.59,9.16-8.59,8.93,3.73,9,8.59S412.52,50.91,406.75,50.91Zm72.15,61.51H461.72V82.83c0-7.12-2.48-12-8.7-12-4.74,0-7.57,3.27-8.81,6.44a12.39,12.39,0,0,0-.57,4.29v30.83H426.47V75.82c0-6.89-.23-13.81-.46-18.78h17l0,8.84h.59c2.26-3.62,6.29-8.93,15.56-8.93,11.3,0,19.77,7.57,19.77,23.84v31.63Z"/></g></g></svg>