<svg xmlns="http://www.w3.org/2000/svg" viewBox="0 0 520 520"><defs><style>.cls-1{fill:#319966;}.cls-2{fill:#fff;}.cls-3{fill:none;}</style></defs><title>rethink-fav-qu</title><g id="Layer_2" data-name="Layer 2"><g id="Layer_1-2" data-name="Layer 1"><circle class="cls-1" cx="260" cy="260" r="250.17"/><path class="cls-2" d="M219.51,336.26l-1.07-13c-3.21-27.07,6.43-56.65,33.2-86.74,24.09-26.57,37.47-46.13,37.47-68.69,0-25.57-17.13-42.62-50.86-43.12-19.27,0-40.69,6-54.07,15.55l-12.85-31.59c17.67-12,48.18-20.06,76.56-20.06,61.56,0,89.4,35.6,89.4,73.71,0,34.09-20.34,58.66-46,87.24-23.55,26.07-32.12,48.13-30.51,73.7l.53,13Zm-11.77,70.19c0-18.55,13.38-31.58,32.12-31.58s31.58,13,31.58,31.58c0,17.55-12.31,31.09-32.12,31.09C220.58,437.54,207.74,424,207.74,406.45Z"/><rect class="cls-3" width="520" height="520"/></g></g></svg>