<svg xmlns="http://www.w3.org/2000/svg" viewBox="0 0 197.22 85.05">
  <defs>
    <style>
      .cls-1 {
        fill: none;
      }

      .cls-2 {
        fill: #fff;
      }
    </style>
  </defs>
  <title>hero-logo</title>
  <g id="Layer_2" data-name="Layer 2">
    <g id="Layer_1-2" data-name="Layer 1">
      <g>
        <rect class="cls-1" width="197.22" height="85.05"/>
        <g>
          <path class="cls-2" d="M35.41,21.5c0-4.52-2.82-7.06-7.84-7.06H13.18v24h3.17V27.68H25l7.76,10.77h3.85L28.75,27.68C32.67,27.11,35.41,25.45,35.41,21.5ZM16.34,25V17.19H27c3.46,0,5.19,1.27,5.19,3.87S30.43,25,27,25Z"/>
          <polygon class="cls-2" points="43.61 17.19 61.37 17.19 61.37 14.44 40.43 14.44 40.43 38.45 61.37 38.45 61.37 35.69 43.61 35.69 43.61 27.68 66.81 27.68 66.81 24.92 43.61 24.92 43.61 17.19"/>
          <path class="cls-2" d="M69.56,4H2.68V49H193.52V4Zm52.62,34.5H119V27.68H102.9V38.45H99.7V27.68H85.77V38.45H82.59V27.68H66.81v18.5H5.43V6.7H66.81V25H82.59V17.19H73V14.44H95.4v2.75H85.77V25H99.7V14.44h3.18V25H119V14.44h3.2Zm9.42,0h-3.18v-24h3.18Zm28.65,0h-3L140.87,17.68V38.45H137.8v-24h4.38l15,19v-19h3Zm21.72,0-10.6-10.77h-2.31V38.45h-3.18v-24h3.18V25h2.62l9.82-10.48h3.94l-11.26,11.7,11.63,12.23Z"/>
        </g>
        <g>
          <g>
            <path class="cls-2" d="M4.48,58.76v1.78H9.6v1.74H4.48v1.84h6v1.74h-8V57h8v1.74Z"/>
            <path class="cls-2" d="M21,57v8.84H19.17l-4.77-6.4v6.4H12.46V57h2.4l4.24,5.7V57Z"/>
            <path class="cls-2" d="M31.45,58.76H28.18v7.1h-2v-7.1H22.87V57h8.58Z"/>
            <path class="cls-2" d="M35.31,58.76v1.78h5.13v1.74H35.31v1.84h6v1.74h-8V57h8v1.74Z"/>
            <path class="cls-2" d="M49.76,65.86l-2.2-3.25H45.32v3.25h-2V57h5.27c2,0,3.16,1,3.16,2.79a2.45,2.45,0,0,1-1.9,2.64l2.33,3.41Zm-4.44-5h3c.9,0,1.31-.34,1.31-1.06s-.41-1-1.31-1h-3Z"/>
            <path class="cls-2" d="M62.25,59.93c0,1.9-1.16,2.91-3.3,2.91H56v3H54V57h5C61.09,57,62.25,58,62.25,59.93Zm-2.08,0c0-.8-.46-1.17-1.46-1.17H56V61.1h2.73C59.71,61.1,60.17,60.74,60.17,59.93Z"/>
            <path class="cls-2" d="M70.65,65.86l-2.2-3.25H66.21v3.25h-2V57h5.26c2,0,3.16,1,3.16,2.79a2.45,2.45,0,0,1-1.9,2.64L73,65.86Zm-4.44-5h3c.9,0,1.31-.34,1.31-1.06s-.41-1-1.31-1h-3Z"/>
            <path class="cls-2" d="M74.85,57h2v8.84h-2Z"/>
            <path class="cls-2" d="M78.73,64.78l.79-1.59a6.58,6.58,0,0,0,3.65,1.1c1.41,0,2.15-.34,2.15-1s-.45-.79-2.25-1c-2.93-.26-3.94-1-3.94-2.73s1.49-2.77,4-2.77a6.6,6.6,0,0,1,3.79,1.06l-.73,1.53a5.32,5.32,0,0,0-3-.86c-1.26,0-2,.35-2,.95s.46.79,2.25,1c2.94.26,3.94,1,3.94,2.73S86,66,83.2,66A7.76,7.76,0,0,1,78.73,64.78Z"/>
            <path class="cls-2" d="M91.34,58.76v1.78h5.12v1.74H91.34v1.84h6v1.74h-8V57h8v1.74Z"/>
            <path class="cls-2" d="M105.51,58.76v2h5.12v1.75h-5.12V65.9h-2V57h8v1.74Z"/>
            <path class="cls-2" d="M112.84,61.44c0-2.74,2-4.58,4.87-4.58s4.86,1.84,4.86,4.58S120.62,66,117.71,66,112.84,64.18,112.84,61.44Zm7.66,0a2.8,2.8,0,1,0-2.82,2.78h0a2.65,2.65,0,0,0,2.79-2.5Z"/>
            <path class="cls-2" d="M131,65.86l-2.2-3.25h-2.2v3.25h-2V57h5.27c2,0,3.15,1,3.15,2.79a2.45,2.45,0,0,1-1.89,2.64l2.32,3.41Zm-4.43-5h3c.9,0,1.32-.34,1.32-1.06s-.42-1-1.32-1h-3Z"/>
            <path class="cls-2" d="M135.07,62.6V57h2v5.25c0,1.34.72,2,2.22,2s2.23-.62,2.23-2V57h1.93v5.6c0,2.18-1.52,3.42-4.21,3.42S135.07,64.78,135.07,62.6Z"/>
            <path class="cls-2" d="M156.74,65.86h-2V59.41l-2.8,6.45h-1.39l-2.79-6.45v6.45h-2V57h2.81l2.66,6.14L153.92,57h2.82Z"/>
            <path class="cls-2" d="M165.4,58.76v2h5.12v1.75H165.4V65.9h-2V57h8v1.74Z"/>
            <path class="cls-2" d="M172.73,61.44c0-2.74,2-4.58,4.87-4.58s4.86,1.84,4.86,4.58-2,4.58-4.86,4.58S172.73,64.18,172.73,61.44Zm7.66,0a2.8,2.8,0,1,0-2.82,2.78h0a2.65,2.65,0,0,0,2.79-2.5Z"/>
            <path class="cls-2" d="M190.92,65.86l-2.19-3.25h-2.24v3.25h-2V57h5.27c2.05,0,3.16,1,3.16,2.79a2.46,2.46,0,0,1-1.9,2.64l2.32,3.41Zm-4.43-5h3c.89,0,1.31-.34,1.31-1.06s-.42-1-1.31-1h-3Z"/>
          </g>
          <g>
            <path class="cls-2" d="M4.48,72v2H9.6v1.75H4.48v3.39h-2V70.21h8V72Z"/>
            <path class="cls-2" d="M12.38,75.79V70.21h2v5.25c0,1.34.71,2,2.22,2s2.23-.62,2.23-2V70.21h1.93v5.58c0,2.18-1.52,3.41-4.21,3.41S12.38,78,12.38,75.79Z"/>
            <path class="cls-2" d="M31.31,72H28v7.1H26V72H22.73V70.21h8.58Z"/>
            <path class="cls-2" d="M33.25,75.79V70.21h2v5.25c0,1.34.72,2,2.23,2s2.22-.62,2.22-2V70.21h1.94v5.58c0,2.18-1.52,3.41-4.22,3.41S33.25,78,33.25,75.79Z"/>
            <path class="cls-2" d="M50.69,79.05l-2.2-3.25H46.26v3.25h-2V70.21H49.5c2,0,3.15,1,3.15,2.79a2.47,2.47,0,0,1-1.89,2.64l2.32,3.41Zm-4.43-5h3c.9,0,1.32-.34,1.32-1.06s-.42-1-1.32-1h-3Z"/>
            <path class="cls-2" d="M56.92,72v1.78H62v1.74H56.92v1.84h6V79.1h-8V70.21h8V72Z"/>
            <path class="cls-2" d="M68.19,78,69,76.38a6.54,6.54,0,0,0,3.64,1.1c1.42,0,2.16-.34,2.16-1s-.45-.79-2.25-1c-2.94-.26-3.94-1-3.94-2.73s1.48-2.77,4-2.77A6.48,6.48,0,0,1,76.41,71l-.73,1.53a5.4,5.4,0,0,0-3-.86c-1.26,0-2,.35-2,1s.45.79,2.25,1c2.94.26,3.94,1,3.94,2.73S75.4,79.2,72.66,79.2A7.82,7.82,0,0,1,68.19,78Z"/>
            <path class="cls-2" d="M78.62,75.79V70.21h2v5.25c0,1.34.72,2,2.23,2s2.22-.62,2.22-2V70.21H87v5.58c0,2.18-1.52,3.41-4.22,3.41S78.62,78,78.62,75.79Z"/>
            <path class="cls-2" d="M88.73,78l.79-1.59a6.54,6.54,0,0,0,3.64,1.1c1.42,0,2.16-.34,2.16-1s-.45-.79-2.25-1c-2.94-.26-3.94-1-3.94-2.73s1.48-2.77,4-2.77a6.48,6.48,0,0,1,3.8,1.06L96.2,72.6a5.4,5.4,0,0,0-3-.86c-1.26,0-2,.35-2,1s.45.79,2.25,1c2.94.26,3.94,1,3.94,2.73S95.94,79.2,93.2,79.2A7.82,7.82,0,0,1,88.73,78Z"/>
            <path class="cls-2" d="M107.2,72h-3.27v7.1h-2V72H98.62V70.21h8.58Z"/>
            <path class="cls-2" d="M114,77.18h-4l-.8,1.87h-2.11L111,70.21h2.08L117,79.05h-2.21Zm-3.28-1.69h2.56L112,72.28Z"/>
            <path class="cls-2" d="M118.73,70.21h2v8.84h-2Z"/>
            <path class="cls-2" d="M131.81,70.21v8.84h-1.87l-4.77-6.4v6.4h-1.94V70.21h2.41l4.23,5.68V70.21Z"/>
            <path class="cls-2" d="M140.46,77.18h-4l-.8,1.87h-2.12l3.92-8.84h2.08l3.91,8.84h-2.21Zm-3.28-1.69h2.56l-1.27-3.21Z"/>
            <path class="cls-2" d="M153.91,76.59c0,1.63-1.1,2.46-3.24,2.46H145.2V70.21h5.29c2.07,0,3.14.8,3.14,2.38a1.87,1.87,0,0,1-1.37,1.92A2,2,0,0,1,153.91,76.59Zm-6.68-2.86h3.22c.78,0,1.16-.28,1.16-.87s-.38-.91-1.13-.91h-3.25Zm4.61,2.65c0-.61-.4-.91-1.2-.91h-3.41v1.84h3.43c.79,0,1.18-.31,1.18-.93Z"/>
            <path class="cls-2" d="M156.19,70.21h2v8.84h-2Z"/>
            <path class="cls-2" d="M168.42,77.31v1.74h-7.74V70.21h2v7.1Z"/>
            <path class="cls-2" d="M170.51,70.21h2v8.84h-2Z"/>
            <path class="cls-2" d="M183,72h-3.27v7.1h-2V72h-3.28V70.21H183Z"/>
            <path class="cls-2" d="M190,75.08v4h-2v-4l-3.72-4.87h2.53l2.26,3,2.25-3h2.44Z"/>
          </g>
        </g>
      </g>
    </g>
  </g>
</svg>
