<svg xmlns="http://www.w3.org/2000/svg" viewBox="0 0 229.5 54.1"><defs><style>.a{fill:#fff;}</style></defs><title>Asset 3</title><path class="a" d="M39.36,21.1c0-5.43-3.39-8.49-9.42-8.49H12.61V41.49h3.82v-13H26.79l9.35,13h4.62l-9.41-13C36.06,27.86,39.36,25.86,39.36,21.1ZM16.43,25.22v-9.3H29.21c4.17,0,6.25,1.53,6.25,4.65s-2.08,4.65-6.25,4.65Z"/><polygon class="a" points="49.22 15.92 70.58 15.92 70.58 12.61 45.4 12.61 45.4 41.49 70.58 41.49 70.58 38.17 49.22 38.17 49.22 28.54 77.12 28.54 77.12 25.22 49.22 25.22 49.22 15.92"/><path class="a" d="M80.43,0H0V54.1H229.5V0Zm63.25,41.49h-3.82v-13H120.5v13h-3.83v-13H99.92v13H96.1v-13h-19V50.79H3.31V3.31H77.12V25.22h19v-9.3H84.51V12.61h27v3.31H99.92v9.3h16.75V12.61h3.83V25.22h19.36V12.61h3.82Zm11.32,0h-3.82V12.61H155Zm34.46,0h-3.61l-19.66-25v25H162.5V12.61h5.26l18,22.85V12.61h3.69Zm26.11,0-12.7-13h-2.78v13h-3.82V12.61h3.82V25.22h3.15l11.82-12.61h4.73L206.22,26.78l14,14.71Z"/></svg>