<svg xmlns="http://www.w3.org/2000/svg" viewBox="0 0 194.77 100.99">
  <defs>
    <style>
      .cls-1, .cls-2, .cls-7 {
        fill: #fff;
      }

      .cls-2 {
        font-size: 8.03px;
        font-family: Montserrat-Medium, Montserrat Medium;
        font-weight: 500;
        letter-spacing: 0.14em;
      }

      .cls-3 {
        letter-spacing: 0.12em;
      }

      .cls-4 {
        letter-spacing: 0.14em;
      }

      .cls-5 {
        letter-spacing: 0.14em;
      }

      .cls-6 {
        letter-spacing: 0.12em;
      }

      .cls-7 {
        stroke: #fff;
        stroke-miterlimit: 10;
        stroke-width: 0.71px;
      }

      .cls-8 {
        fill: none;
      }
    </style>
  </defs>
  <title>logo_strap</title>
  <g id="Layer_2" data-name="Layer 2">
    <g id="Layer_1-2" data-name="Layer 1">
      <g>
        <g>
          <path class="cls-1" d="M34.81,20.31c0-4.52-2.82-7.06-7.84-7.06H12.58v24h3.17V26.49h8.62l7.76,10.77H36L28.15,26.49C32.07,25.92,34.81,24.26,34.81,20.31ZM15.74,23.76V16H26.37c3.46,0,5.19,1.27,5.19,3.87s-1.73,3.89-5.19,3.89Z"/>
          <polygon class="cls-1" points="43.01 16 60.77 16 60.77 13.25 39.83 13.25 39.83 37.26 60.77 37.26 60.77 34.5 43.01 34.5 43.01 26.49 66.21 26.49 66.21 23.73 43.01 23.73 43.01 16"/>
          <path class="cls-1" d="M69,2.76H2.08v45H192.92v-45Zm52.62,34.5h-3.2V26.49h-16.1V37.26H99.1V26.49H85.17V37.26H82V26.49H66.21V45H4.83V5.51H66.21V23.76H82V16H72.35V13.25H94.8V16H85.17v7.76H99.1V13.25h3.18V23.76h16.1V13.25h3.2Zm9.42,0h-3.18v-24H131Zm28.65,0h-3L140.27,16.49V37.26H137.2v-24h4.38l15,19v-19h3Zm21.72,0-10.6-10.77h-2.31V37.26h-3.18v-24h3.18v10.5h2.62l9.82-10.48h3.94L173.58,25l11.63,12.23Z"/>
        </g>
        <text class="cls-2" transform="translate(14.53 97.2)">23 &amp; <tspan class="cls-3" x="24.65" y="0">2</tspan><tspan x="30.24" y="0">4 JUNE </tspan><tspan class="cls-4" x="70.17" y="0">202</tspan><tspan class="cls-5" x="88.05" y="0">0 | HONG </tspan><tspan class="cls-6" x="138.4" y="0">K</tspan><tspan x="145.09" y="0">ONG</tspan></text>
        <g>
          <g>
            <path class="cls-1" d="M3.87,57.57v1.78H9v1.74H3.87v1.84h6v1.74h-8V55.83h8v1.74Z"/>
            <path class="cls-1" d="M20.43,55.83v8.84H18.56l-4.77-6.4v6.4H11.85V55.83h2.41l4.24,5.68V55.83Z"/>
            <path class="cls-1" d="M30.85,57.57H27.57v7.1h-2v-7.1H22.27V55.83h8.58Z"/>
            <path class="cls-1" d="M34.71,57.57v1.78h5.12v1.74H34.71v1.84h6v1.74h-8V55.83h8v1.74Z"/>
            <path class="cls-1" d="M49.15,64.67,47,61.42H44.72v3.25h-2V55.83H48c2.06,0,3.16,1,3.16,2.79a2.45,2.45,0,0,1-1.9,2.64l2.33,3.41Zm-4.43-5h3c.9,0,1.32-.34,1.32-1.06s-.42-1-1.32-1h-3Z"/>
            <path class="cls-1" d="M61.64,58.74c0,1.9-1.15,2.91-3.3,2.91h-3v3h-2V55.83h5C60.49,55.83,61.64,56.84,61.64,58.74Zm-2.08,0c0-.8-.45-1.17-1.45-1.17H55.38v2.34h2.73C59.11,59.91,59.56,59.55,59.56,58.74Z"/>
            <path class="cls-1" d="M70,64.67l-2.2-3.25H65.61v3.25h-2V55.83h5.26c2.06,0,3.16,1,3.16,2.79a2.45,2.45,0,0,1-1.89,2.64l2.32,3.41Zm-4.43-5h3c.9,0,1.32-.34,1.32-1.06s-.42-1-1.32-1h-3Z"/>
            <path class="cls-1" d="M74.24,55.83h2v8.84h-2Z"/>
            <path class="cls-1" d="M78.13,63.59,78.92,62a6.54,6.54,0,0,0,3.64,1.1c1.42,0,2.16-.34,2.16-1s-.46-.79-2.25-.95c-2.94-.26-3.94-1-3.94-2.73s1.48-2.77,4-2.77a6.54,6.54,0,0,1,3.8,1.06l-.73,1.53a5.41,5.41,0,0,0-3-.86c-1.26,0-2,.35-2,1s.45.79,2.25.95c2.93.26,3.93,1,3.93,2.73s-1.44,2.8-4.18,2.8A7.76,7.76,0,0,1,78.13,63.59Z"/>
            <path class="cls-1" d="M90.74,57.57v1.78h5.12v1.74H90.74v1.84h6v1.74h-8V55.83h8v1.74Z"/>
            <path class="cls-1" d="M104.91,57.57v2H110v1.75h-5.12v3.39h-2V55.83h8v1.74Z"/>
            <path class="cls-1" d="M112.24,60.25c0-2.74,2-4.58,4.86-4.58S122,57.51,122,60.25s-1.95,4.58-4.86,4.58S112.24,63,112.24,60.25Zm7.66,0A2.8,2.8,0,1,0,117.1,63,2.66,2.66,0,0,0,119.9,60.25Z"/>
            <path class="cls-1" d="M130.43,64.67l-2.2-3.25H126v3.25h-2V55.83h5.27c2.05,0,3.16,1,3.16,2.79a2.45,2.45,0,0,1-1.9,2.64l2.33,3.41Zm-4.44-5h3c.9,0,1.31-.34,1.31-1.06s-.41-1-1.31-1h-3Z"/>
            <path class="cls-1" d="M134.47,61.41V55.83h2v5.25c0,1.34.71,2,2.22,2s2.22-.62,2.22-2V55.83h1.94v5.58c0,2.18-1.52,3.42-4.21,3.42S134.47,63.59,134.47,61.41Z"/>
            <path class="cls-1" d="M156.14,64.67h-2V58.22l-2.79,6.45h-1.4l-2.79-6.45v6.45h-1.94V55.83H148L150.67,62l2.65-6.14h2.82Z"/>
            <path class="cls-1" d="M164.8,57.57v2h5.12v1.75H164.8v3.39h-2V55.83h8v1.74Z"/>
            <path class="cls-1" d="M172.13,60.25c0-2.74,2-4.58,4.86-4.58s4.86,1.84,4.86,4.58-1.95,4.58-4.86,4.58S172.13,63,172.13,60.25Zm7.66,0A2.8,2.8,0,1,0,177,63,2.66,2.66,0,0,0,179.79,60.25Z"/>
            <path class="cls-1" d="M190.32,64.67l-2.2-3.25h-2.24v3.25h-2V55.83h5.26c2,0,3.16,1,3.16,2.79a2.45,2.45,0,0,1-1.9,2.64l2.33,3.41Zm-4.44-5h3c.9,0,1.31-.34,1.31-1.06s-.41-1-1.31-1h-3Z"/>
          </g>
          <g>
            <path class="cls-1" d="M3.87,70.76v2H9v1.75H3.87v3.39h-2V69h8v1.74Z"/>
            <path class="cls-1" d="M11.77,74.6V69h2v5.25c0,1.34.72,2,2.23,2s2.22-.62,2.22-2V69h1.94V74.6C20.19,76.78,18.67,78,16,78S11.77,76.78,11.77,74.6Z"/>
            <path class="cls-1" d="M30.7,70.76H27.43v7.1h-2v-7.1H22.12V69H30.7Z"/>
            <path class="cls-1" d="M32.64,74.6V69h2v5.25c0,1.34.71,2,2.22,2s2.22-.62,2.22-2V69h1.94V74.6c0,2.18-1.52,3.41-4.21,3.41S32.64,76.78,32.64,74.6Z"/>
            <path class="cls-1" d="M50.09,77.86l-2.2-3.25H45.65v3.25h-2V69h5.27c2,0,3.16,1,3.16,2.79a2.46,2.46,0,0,1-1.9,2.64l2.33,3.41Zm-4.44-5h3c.9,0,1.31-.34,1.31-1.06s-.41-1-1.31-1h-3Z"/>
            <path class="cls-1" d="M56.31,70.76v1.78h5.13v1.74H56.31v1.84h6v1.74h-8V69h8v1.74Z"/>
            <path class="cls-1" d="M67.58,76.78l.8-1.59A6.52,6.52,0,0,0,72,76.29c1.41,0,2.15-.34,2.15-1s-.45-.79-2.24-1C69,74.1,68,73.41,68,71.63s1.48-2.77,4-2.77a6.51,6.51,0,0,1,3.79,1.06l-.72,1.53a5.44,5.44,0,0,0-3-.86c-1.27,0-2,.35-2,1s.46.79,2.25.95c2.94.26,3.94,1,3.94,2.73S74.8,78,72.06,78A7.79,7.79,0,0,1,67.58,76.78Z"/>
            <path class="cls-1" d="M78,74.6V69h2v5.25c0,1.34.71,2,2.22,2s2.22-.62,2.22-2V69h1.94V74.6c0,2.18-1.52,3.41-4.21,3.41S78,76.78,78,74.6Z"/>
            <path class="cls-1" d="M88.12,76.78l.8-1.59a6.52,6.52,0,0,0,3.64,1.1c1.41,0,2.15-.34,2.15-1s-.45-.79-2.24-1c-2.94-.26-3.94-1-3.94-2.73s1.48-2.77,4-2.77a6.51,6.51,0,0,1,3.79,1.06l-.72,1.53a5.44,5.44,0,0,0-3-.86c-1.27,0-2,.35-2,1s.46.79,2.25.95c2.94.26,3.94,1,3.94,2.73S95.34,78,92.6,78A7.79,7.79,0,0,1,88.12,76.78Z"/>
            <path class="cls-1" d="M106.6,70.76h-3.28v7.1h-2v-7.1H98V69h8.58Z"/>
            <path class="cls-1" d="M113.38,76h-4l-.79,1.87h-2.12L110.39,69h2.08l3.92,8.84h-2.21Zm-3.27-1.69h2.56l-1.28-3.21Z"/>
            <path class="cls-1" d="M118.13,69h2v8.84h-2Z"/>
            <path class="cls-1" d="M131.21,69v8.84h-1.88l-4.77-6.4v6.4h-1.94V69H125l4.24,5.68V69Z"/>
            <path class="cls-1" d="M139.85,76h-4l-.79,1.87H133L136.86,69h2.08l3.91,8.84h-2.21Zm-3.28-1.69h2.57l-1.28-3.21Z"/>
            <path class="cls-1" d="M153.31,75.4c0,1.63-1.11,2.46-3.24,2.46h-5.48V69h5.3c2.06,0,3.13.8,3.13,2.38a1.87,1.87,0,0,1-1.37,1.92A2,2,0,0,1,153.31,75.4Zm-6.69-2.86h3.23c.78,0,1.15-.28,1.15-.87s-.37-.91-1.13-.91h-3.25Zm4.62,2.65c0-.61-.41-.91-1.21-.91h-3.41v1.84h3.44C150.85,76.12,151.24,75.82,151.24,75.19Z"/>
            <path class="cls-1" d="M155.58,69h2v8.84h-2Z"/>
            <path class="cls-1" d="M167.81,76.12v1.74h-7.73V69h2v7.1Z"/>
            <path class="cls-1" d="M169.91,69h2v8.84h-2Z"/>
            <path class="cls-1" d="M182.35,70.76h-3.28v7.1h-2v-7.1h-3.27V69h8.58Z"/>
            <path class="cls-1" d="M189.43,73.89v4h-2v-4L183.67,69h2.54l2.26,3,2.25-3h2.43Z"/>
          </g>
        </g>
        <line class="cls-7" x1="14.75" y1="85.79" x2="180.24" y2="85.79"/>
        <rect class="cls-8" width="194.77" height="100.99"/>
      </g>
    </g>
  </g>
</svg>
