<svg xmlns="http://www.w3.org/2000/svg" viewBox="0 0 197.22 102.77">
  <defs>
    <style>
      .cls-1, .cls-2 {
        fill: #fff;
      }

      .cls-2 {
        stroke: #fff;
        stroke-miterlimit: 10;
        stroke-width: 0.71px;
      }

      .cls-3 {
        fill: none;
      }
    </style>
  </defs>
  <title>logo_and_strap_white</title>
  <g id="Layer_2" data-name="Layer 2">
    <g id="Layer_1-2" data-name="Layer 1">
      <g>
        <g>
          <path class="cls-1" d="M35.41,21.5c0-4.52-2.82-7.06-7.84-7.06H13.18v24h3.17V27.68H25l7.76,10.77h3.85L28.75,27.68C32.67,27.11,35.41,25.45,35.41,21.5ZM16.34,25V17.19H27c3.46,0,5.19,1.27,5.19,3.87S30.43,25,27,25Z"/>
          <polygon class="cls-1" points="43.61 17.19 61.37 17.19 61.37 14.44 40.43 14.44 40.43 38.45 61.37 38.45 61.37 35.69 43.61 35.69 43.61 27.68 66.81 27.68 66.81 24.92 43.61 24.92 43.61 17.19"/>
          <path class="cls-1" d="M69.56,4H2.68V49H193.52V4Zm52.62,34.5H119V27.68h-16.1V38.45H99.7V27.68H85.77V38.45H82.59V27.68H66.81v18.5H5.43V6.7H66.81V25H82.59V17.19H73V14.44H95.4v2.75H85.77V25H99.7V14.44h3.18V25H119V14.44h3.2Zm9.42,0h-3.18v-24h3.18Zm28.65,0h-3L140.87,17.68V38.45H137.8v-24h4.38l15,19v-19h3Zm21.72,0-10.6-10.77h-2.31V38.45h-3.18v-24h3.18V25h2.62l9.82-10.48h3.94L174.18,26.22l11.63,12.23Z"/>
        </g>
        <g>
          <path class="cls-1" d="M19.47,97.69v.7h-4v-.54l2.29-2.21a2.53,2.53,0,0,0,.56-.7,1.26,1.26,0,0,0,.15-.59.87.87,0,0,0-.31-.69,1.43,1.43,0,0,0-.89-.24,1.76,1.76,0,0,0-1.44.61l-.54-.47a2.14,2.14,0,0,1,.86-.63,3,3,0,0,1,1.19-.22,2.19,2.19,0,0,1,1.41.42,1.38,1.38,0,0,1,.52,1.14,1.89,1.89,0,0,1-.19.85,3.34,3.34,0,0,1-.73.92l-1.72,1.65Z"/>
          <path class="cls-1" d="M24.67,95.64a1.48,1.48,0,0,1,.43,1.1,1.63,1.63,0,0,1-.24.87,1.7,1.7,0,0,1-.72.62,2.74,2.74,0,0,1-1.17.23,3.69,3.69,0,0,1-1.15-.18,2.57,2.57,0,0,1-.91-.51l.37-.63a2.14,2.14,0,0,0,.74.44,2.75,2.75,0,0,0,.95.16,1.63,1.63,0,0,0,1-.26.88.88,0,0,0,.35-.74A.85.85,0,0,0,24,96a1.73,1.73,0,0,0-1-.25h-.45V95.2l1.41-1.73h-2.7v-.7h3.71v.55l-1.47,1.81A2,2,0,0,1,24.67,95.64Z"/>
          <path class="cls-1" d="M34.83,98.48l-.75-.75a2.6,2.6,0,0,1-1.88.73,2.71,2.71,0,0,1-1-.19,1.56,1.56,0,0,1-.7-.52,1.21,1.21,0,0,1-.26-.76,1.44,1.44,0,0,1,.32-.91,3.74,3.74,0,0,1,1.05-.81,2.71,2.71,0,0,1-.52-.67,1.36,1.36,0,0,1-.16-.62,1.12,1.12,0,0,1,.42-.91,1.65,1.65,0,0,1,1.1-.35,1.59,1.59,0,0,1,1,.31,1.07,1.07,0,0,1,.38.86,1.16,1.16,0,0,1-.28.77,3.25,3.25,0,0,1-.92.7L34,96.74a3.55,3.55,0,0,0,.35-1l.62.2a3.76,3.76,0,0,1-.49,1.28l.75.76Zm-1.21-1.2L32,95.69a3.09,3.09,0,0,0-.8.6.92.92,0,0,0-.23.62.74.74,0,0,0,.35.65,1.49,1.49,0,0,0,.91.25A1.84,1.84,0,0,0,33.62,97.28Zm-1.77-3.81a.64.64,0,0,0-.21.5.78.78,0,0,0,.12.41,2.45,2.45,0,0,0,.45.55,3.72,3.72,0,0,0,.77-.54.7.7,0,0,0,.21-.49.58.58,0,0,0-.2-.45.82.82,0,0,0-.55-.17A.89.89,0,0,0,31.85,93.47Z"/>
          <path class="cls-1" d="M44.13,97.69v.7h-4v-.54l2.29-2.21a3,3,0,0,0,.56-.7,1.38,1.38,0,0,0,.14-.59.84.84,0,0,0-.31-.69,1.4,1.4,0,0,0-.88-.24,1.76,1.76,0,0,0-1.44.61l-.55-.47a2.18,2.18,0,0,1,.87-.63A3,3,0,0,1,42,92.71a2.14,2.14,0,0,1,1.4.42,1.39,1.39,0,0,1,.53,1.14,1.9,1.9,0,0,1-.2.85A3.34,3.34,0,0,1,43,96l-1.72,1.65Z"/>
          <path class="cls-1" d="M50.65,97H49.58v1.38H48.8V97H45.68v-.56l2.87-3.68h.87l-2.76,3.55h2.16V95.1h.76v1.22h1.07Z"/>
          <path class="cls-1" d="M55.78,98.24a1.77,1.77,0,0,1-.7-.6l.47-.54a1.4,1.4,0,0,0,1.17.67.92.92,0,0,0,.72-.29,1.34,1.34,0,0,0,.24-.86V93.47h-2v-.7h2.83v3.81A2,2,0,0,1,58,98a1.73,1.73,0,0,1-1.31.47A2.13,2.13,0,0,1,55.78,98.24Z"/>
          <path class="cls-1" d="M61.82,97.81A2.52,2.52,0,0,1,61.19,96v-3.2H62v3.16c0,1.21.52,1.81,1.58,1.81a1.53,1.53,0,0,0,1.18-.45,2,2,0,0,0,.41-1.36V92.77H66V96a2.54,2.54,0,0,1-.63,1.85,2.37,2.37,0,0,1-1.75.64A2.33,2.33,0,0,1,61.82,97.81Z"/>
          <path class="cls-1" d="M73.55,92.77v5.62h-.66L69.52,94.2v4.19h-.8V92.77h.66L72.75,97V92.77Z"/>
          <path class="cls-1" d="M80.44,97.69v.7H76.36V92.77h4v.7H77.17v1.72H80v.69H77.17v1.81Z"/>
          <path class="cls-1" d="M89.65,97.69v.7h-4v-.54l2.29-2.21a3,3,0,0,0,.56-.7,1.38,1.38,0,0,0,.14-.59.84.84,0,0,0-.31-.69,1.4,1.4,0,0,0-.88-.24A1.74,1.74,0,0,0,86,94l-.55-.47a2.21,2.21,0,0,1,.86-.63,3.09,3.09,0,0,1,1.2-.22,2.16,2.16,0,0,1,1.4.42,1.38,1.38,0,0,1,.52,1.14,1.89,1.89,0,0,1-.19.85,3.34,3.34,0,0,1-.73.92l-1.72,1.65Z"/>
          <path class="cls-1" d="M92.52,98.11a2.2,2.2,0,0,1-.82-1,4.1,4.1,0,0,1,0-3.08,2.25,2.25,0,0,1,.82-1,2.07,2.07,0,0,1,1.18-.34,2.09,2.09,0,0,1,1.18.34,2.23,2.23,0,0,1,.81,1,4.1,4.1,0,0,1,0,3.08,2.18,2.18,0,0,1-.81,1,2.1,2.1,0,0,1-1.18.35A2.07,2.07,0,0,1,92.52,98.11Zm2.26-.92a3.37,3.37,0,0,0,0-3.22,1.29,1.29,0,0,0-1.08-.55,1.31,1.31,0,0,0-1.09.55,3.44,3.44,0,0,0,0,3.22,1.28,1.28,0,0,0,1.09.55A1.27,1.27,0,0,0,94.78,97.19Z"/>
          <path class="cls-1" d="M101.81,97.69v.7h-4v-.54l2.29-2.21a2.53,2.53,0,0,0,.56-.7,1.26,1.26,0,0,0,.15-.59.84.84,0,0,0-.31-.69,1.43,1.43,0,0,0-.89-.24,1.76,1.76,0,0,0-1.44.61l-.54-.47a2.21,2.21,0,0,1,.86-.63,3.07,3.07,0,0,1,1.19-.22,2.19,2.19,0,0,1,1.41.42,1.38,1.38,0,0,1,.52,1.14,1.89,1.89,0,0,1-.19.85,3.34,3.34,0,0,1-.73.92l-1.72,1.65Z"/>
          <path class="cls-1" d="M104.68,98.11a2.24,2.24,0,0,1-.81-1,4.1,4.1,0,0,1,0-3.08,2.3,2.3,0,0,1,.81-1,2.1,2.1,0,0,1,1.19-.34,2,2,0,0,1,1.17.34,2.25,2.25,0,0,1,.82,1,4.1,4.1,0,0,1,0,3.08,2.2,2.2,0,0,1-.82,1,2,2,0,0,1-1.17.35A2.11,2.11,0,0,1,104.68,98.11Zm2.27-.92A3.44,3.44,0,0,0,107,94a1.35,1.35,0,0,0-2.17,0,3.37,3.37,0,0,0,0,3.22,1.35,1.35,0,0,0,2.17,0Z"/>
          <path class="cls-1" d="M113.79,92.43h.72V100h-.72Z"/>
          <path class="cls-1" d="M125.44,92.77v5.62h-.8v-2.5h-3.23v2.5h-.81V92.77h.81v2.42h3.23V92.77Z"/>
          <path class="cls-1" d="M129.25,98.08a2.79,2.79,0,0,1-1.07-1,3,3,0,0,1,0-2.94,2.79,2.79,0,0,1,1.07-1,3.16,3.16,0,0,1,1.54-.37,3.08,3.08,0,0,1,1.52.37,2.66,2.66,0,0,1,1.07,1,3,3,0,0,1,0,2.94,2.66,2.66,0,0,1-1.07,1,3.09,3.09,0,0,1-1.52.38A3.17,3.17,0,0,1,129.25,98.08Zm2.65-.62a2.09,2.09,0,0,0,.78-.78,2.12,2.12,0,0,0,.28-1.1,2.14,2.14,0,0,0-.28-1.1,2.09,2.09,0,0,0-.78-.78,2.18,2.18,0,0,0-1.11-.28,2.22,2.22,0,0,0-1.12.28,2,2,0,0,0-.79.78,2.14,2.14,0,0,0-.28,1.1,2.12,2.12,0,0,0,.28,1.1,2,2,0,0,0,.79.78,2.22,2.22,0,0,0,1.12.28A2.18,2.18,0,0,0,131.9,97.46Z"/>
          <path class="cls-1" d="M141,92.77v5.62h-.66l-3.38-4.19v4.19h-.8V92.77h.66L140.15,97V92.77Z"/>
          <path class="cls-1" d="M147.66,95.55h.77v2.19a2.94,2.94,0,0,1-1,.53,3.71,3.71,0,0,1-1.16.19,3.13,3.13,0,0,1-1.53-.38,2.72,2.72,0,0,1-1.07-1,2.78,2.78,0,0,1-.39-1.47,2.85,2.85,0,0,1,.39-1.48,2.79,2.79,0,0,1,1.07-1,3.31,3.31,0,0,1,1.55-.36,3.16,3.16,0,0,1,1.22.22,2.46,2.46,0,0,1,.94.64l-.5.5a2.27,2.27,0,0,0-1.63-.65,2.3,2.3,0,0,0-1.15.28,2,2,0,0,0-.8.77,2.19,2.19,0,0,0-.29,1.11,2.12,2.12,0,0,0,.29,1.1,2.07,2.07,0,0,0,.8.78,2.29,2.29,0,0,0,1.14.28,2.37,2.37,0,0,0,1.32-.36Z"/>
          <path class="cls-1" d="M156.21,95.89l-1,1v1.45h-.81V92.77h.81v3.14l3-3.14h.91l-2.4,2.53,2.56,3.09h-.94Z"/>
          <path class="cls-1" d="M162.08,98.08a2.75,2.75,0,0,1-1.08-1,3,3,0,0,1,0-2.94,2.75,2.75,0,0,1,1.08-1,3.09,3.09,0,0,1,1.53-.37,3.15,3.15,0,0,1,1.53.37,2.69,2.69,0,0,1,1.06,1,3,3,0,0,1,0,2.94,2.69,2.69,0,0,1-1.06,1,3.15,3.15,0,0,1-1.53.38A3.1,3.1,0,0,1,162.08,98.08Zm2.64-.62a2.09,2.09,0,0,0,.78-.78,2.12,2.12,0,0,0,.29-1.1,2.15,2.15,0,0,0-.29-1.1,2.09,2.09,0,0,0-.78-.78,2.18,2.18,0,0,0-1.11-.28,2.24,2.24,0,0,0-1.12.28,2.11,2.11,0,0,0-.79.78,2.14,2.14,0,0,0-.28,1.1,2.09,2.09,0,0,0,1.07,1.88,2.24,2.24,0,0,0,1.12.28A2.18,2.18,0,0,0,164.72,97.46Z"/>
          <path class="cls-1" d="M173.78,92.77v5.62h-.66l-3.37-4.19v4.19h-.81V92.77h.66L173,97V92.77Z"/>
          <path class="cls-1" d="M180.48,95.55h.77v2.19a2.84,2.84,0,0,1-1,.53,3.7,3.7,0,0,1-1.15.19,3.17,3.17,0,0,1-1.54-.38,2.79,2.79,0,0,1-1.46-2.5,2.85,2.85,0,0,1,.39-1.48,2.75,2.75,0,0,1,1.08-1,3.51,3.51,0,0,1,2.77-.14,2.42,2.42,0,0,1,.93.64l-.5.5a2.27,2.27,0,0,0-1.63-.65,2.33,2.33,0,0,0-1.15.28,2,2,0,0,0-.8.77,2.19,2.19,0,0,0-.29,1.11A2.11,2.11,0,0,0,178,97.46a2.3,2.3,0,0,0,1.15.28,2.36,2.36,0,0,0,1.31-.36Z"/>
        </g>
        <g>
          <g>
            <path class="cls-1" d="M4.48,58.76v1.78H9.6v1.74H4.48v1.84h6v1.74h-8V57h8v1.74Z"/>
            <path class="cls-1" d="M21,57v8.84H19.17l-4.77-6.4v6.4H12.46V57h2.4L19.1,62.7V57Z"/>
            <path class="cls-1" d="M31.45,58.76H28.18v7.1h-2v-7.1H22.87V57h8.58Z"/>
            <path class="cls-1" d="M35.31,58.76v1.78h5.13v1.74H35.31v1.84h6v1.74h-8V57h8v1.74Z"/>
            <path class="cls-1" d="M49.76,65.86l-2.2-3.25H45.32v3.25h-2V57h5.27c2,0,3.16,1,3.16,2.79a2.45,2.45,0,0,1-1.9,2.64l2.33,3.41Zm-4.44-5h3c.9,0,1.31-.34,1.31-1.06s-.41-1.05-1.31-1.05h-3Z"/>
            <path class="cls-1" d="M62.25,59.93c0,1.9-1.16,2.91-3.3,2.91H56v3H54V57h5C61.09,57,62.25,58,62.25,59.93Zm-2.08,0c0-.8-.46-1.17-1.46-1.17H56V61.1h2.73C59.71,61.1,60.17,60.74,60.17,59.93Z"/>
            <path class="cls-1" d="M70.65,65.86l-2.2-3.25H66.21v3.25h-2V57h5.26c2,0,3.16,1,3.16,2.79a2.45,2.45,0,0,1-1.9,2.64L73,65.86Zm-4.44-5h3c.9,0,1.31-.34,1.31-1.06s-.41-1.05-1.31-1.05h-3Z"/>
            <path class="cls-1" d="M74.85,57h2v8.84h-2Z"/>
            <path class="cls-1" d="M78.73,64.78l.79-1.59a6.58,6.58,0,0,0,3.65,1.1c1.41,0,2.15-.34,2.15-1s-.45-.79-2.25-1c-2.93-.26-3.94-1-3.94-2.73s1.49-2.77,4-2.77a6.53,6.53,0,0,1,3.79,1.06l-.73,1.53a5.39,5.39,0,0,0-3-.86c-1.26,0-2,.35-2,.95s.46.79,2.25,1c2.94.26,3.94.95,3.94,2.73S86,66,83.2,66A7.78,7.78,0,0,1,78.73,64.78Z"/>
            <path class="cls-1" d="M91.34,58.76v1.78h5.12v1.74H91.34v1.84h6v1.74h-8V57h8v1.74Z"/>
            <path class="cls-1" d="M105.51,58.76v2h5.12v1.75h-5.12v3.39h-2V57h8v1.74Z"/>
            <path class="cls-1" d="M112.84,61.44c0-2.74,2-4.58,4.87-4.58s4.86,1.84,4.86,4.58S120.62,66,117.71,66,112.84,64.18,112.84,61.44Zm7.66,0a2.8,2.8,0,1,0-2.79,2.78A2.65,2.65,0,0,0,120.5,61.44Z"/>
            <path class="cls-1" d="M131,65.86l-2.2-3.25H126.6v3.25h-2V57h5.27c2,0,3.15,1,3.15,2.79a2.45,2.45,0,0,1-1.89,2.64l2.32,3.41Zm-4.43-5h3c.9,0,1.32-.34,1.32-1.06s-.42-1.05-1.32-1.05h-3Z"/>
            <path class="cls-1" d="M135.07,62.6V57h2v5.25c0,1.34.72,2,2.22,2s2.23-.62,2.23-2V57h1.93V62.6c0,2.18-1.52,3.42-4.21,3.42S135.07,64.78,135.07,62.6Z"/>
            <path class="cls-1" d="M156.74,65.86h-2V59.41l-2.8,6.45h-1.39l-2.79-6.45v6.45H145.8V57h2.81l2.66,6.14L153.92,57h2.82Z"/>
            <path class="cls-1" d="M165.4,58.76v2h5.12v1.75H165.4v3.39h-2V57h8v1.74Z"/>
            <path class="cls-1" d="M172.73,61.44c0-2.74,2-4.58,4.87-4.58s4.86,1.84,4.86,4.58-2,4.58-4.86,4.58S172.73,64.18,172.73,61.44Zm7.66,0a2.8,2.8,0,1,0-2.79,2.78A2.65,2.65,0,0,0,180.39,61.44Z"/>
            <path class="cls-1" d="M190.92,65.86l-2.19-3.25h-2.24v3.25h-2V57h5.27c2.05,0,3.16,1,3.16,2.79a2.46,2.46,0,0,1-1.9,2.64l2.32,3.41Zm-4.43-5h3c.89,0,1.31-.34,1.31-1.06s-.42-1.05-1.31-1.05h-3Z"/>
          </g>
          <g>
            <path class="cls-1" d="M4.48,72v2H9.6v1.75H4.48v3.39h-2V70.21h8V72Z"/>
            <path class="cls-1" d="M12.38,75.79V70.21h2v5.25c0,1.34.71,2,2.22,2s2.23-.62,2.23-2V70.21h1.93v5.58c0,2.18-1.52,3.41-4.21,3.41S12.38,78,12.38,75.79Z"/>
            <path class="cls-1" d="M31.31,72H28v7.1H26V72H22.73V70.21h8.58Z"/>
            <path class="cls-1" d="M33.25,75.79V70.21h2v5.25c0,1.34.72,2,2.23,2s2.22-.62,2.22-2V70.21h1.94v5.58c0,2.18-1.52,3.41-4.22,3.41S33.25,78,33.25,75.79Z"/>
            <path class="cls-1" d="M50.69,79.05l-2.2-3.25H46.26v3.25h-2V70.21H49.5c2,0,3.15,1,3.15,2.79a2.46,2.46,0,0,1-1.89,2.64l2.32,3.41Zm-4.43-5h3c.9,0,1.32-.34,1.32-1.06s-.42-1-1.32-1h-3Z"/>
            <path class="cls-1" d="M56.92,72v1.78H62v1.74H56.92v1.84h6v1.74h-8V70.21h8V72Z"/>
            <path class="cls-1" d="M68.19,78,69,76.38a6.54,6.54,0,0,0,3.64,1.1c1.42,0,2.16-.34,2.16-1s-.45-.79-2.25-1c-2.94-.26-3.94-1-3.94-2.73s1.48-2.77,4-2.77a6.54,6.54,0,0,1,3.8,1.06l-.73,1.53a5.41,5.41,0,0,0-3-.86c-1.26,0-2,.35-2,1s.45.79,2.25,1c2.94.26,3.94.95,3.94,2.73S75.4,79.2,72.66,79.2A7.78,7.78,0,0,1,68.19,78Z"/>
            <path class="cls-1" d="M78.62,75.79V70.21h2v5.25c0,1.34.72,2,2.23,2s2.22-.62,2.22-2V70.21H87v5.58c0,2.18-1.52,3.41-4.22,3.41S78.62,78,78.62,75.79Z"/>
            <path class="cls-1" d="M88.73,78l.79-1.59a6.54,6.54,0,0,0,3.64,1.1c1.42,0,2.16-.34,2.16-1s-.45-.79-2.25-1c-2.94-.26-3.94-1-3.94-2.73s1.48-2.77,4-2.77a6.54,6.54,0,0,1,3.8,1.06l-.73,1.53a5.41,5.41,0,0,0-3-.86c-1.26,0-2,.35-2,1s.45.79,2.25,1c2.94.26,3.94.95,3.94,2.73S95.94,79.2,93.2,79.2A7.78,7.78,0,0,1,88.73,78Z"/>
            <path class="cls-1" d="M107.2,72h-3.27v7.1h-2V72H98.62V70.21h8.58Z"/>
            <path class="cls-1" d="M114,77.18h-4l-.8,1.87h-2.11L111,70.21h2.08L117,79.05h-2.21Zm-3.28-1.69h2.56L112,72.28Z"/>
            <path class="cls-1" d="M118.73,70.21h2v8.84h-2Z"/>
            <path class="cls-1" d="M131.81,70.21v8.84h-1.87l-4.77-6.4v6.4h-1.94V70.21h2.41l4.23,5.68V70.21Z"/>
            <path class="cls-1" d="M140.46,77.18h-4l-.8,1.87h-2.12l3.92-8.84h2.08l3.91,8.84h-2.21Zm-3.28-1.69h2.56l-1.27-3.21Z"/>
            <path class="cls-1" d="M153.91,76.59c0,1.63-1.1,2.46-3.24,2.46H145.2V70.21h5.29c2.07,0,3.14.8,3.14,2.38a1.87,1.87,0,0,1-1.37,1.92A2,2,0,0,1,153.91,76.59Zm-6.68-2.86h3.22c.78,0,1.16-.28,1.16-.87s-.38-.91-1.13-.91h-3.25Zm4.61,2.65c0-.61-.4-.91-1.2-.91h-3.41v1.84h3.43C151.45,77.31,151.84,77,151.84,76.38Z"/>
            <path class="cls-1" d="M156.19,70.21h2v8.84h-2Z"/>
            <path class="cls-1" d="M168.42,77.31v1.74h-7.74V70.21h2v7.1Z"/>
            <path class="cls-1" d="M170.51,70.21h2v8.84h-2Z"/>
            <path class="cls-1" d="M183,72h-3.27v7.1h-2V72h-3.28V70.21H183Z"/>
            <path class="cls-1" d="M190,75.08v4h-2v-4l-3.72-4.87h2.53l2.26,3,2.25-3h2.44Z"/>
          </g>
        </g>
        <line class="cls-2" x1="15.36" y1="86.98" x2="180.85" y2="86.98"/>
        <rect class="cls-3" width="197.22" height="102.77"/>
      </g>
    </g>
  </g>
</svg>
