<?xml version="1.0" standalone="no"?>
<!DOCTYPE svg PUBLIC "-//W3C//DTD SVG 20010904//EN"
 "http://www.w3.org/TR/2001/REC-SVG-20010904/DTD/svg10.dtd">
<svg version="1.0" xmlns="http://www.w3.org/2000/svg"
 width="700.000000pt" height="700.000000pt" viewBox="0 0 700.000000 700.000000"
 preserveAspectRatio="xMidYMid meet">
<metadata>
Created by potrace 1.11, written by Peter Selinger 2001-2013
</metadata>
<g transform="translate(0.000000,700.000000) scale(0.100000,-0.100000)"
fill="#000000" stroke="none">
<path d="M3317 6864 c-1 -1 -38 -5 -82 -8 -74 -6 -115 -10 -205 -22 -74 -10
-217 -36 -270 -49 -30 -8 -66 -16 -80 -19 -65 -12 -313 -91 -415 -133 -33 -13
-73 -30 -89 -36 -34 -14 -313 -152 -336 -167 -8 -5 -60 -37 -114 -70 -468
-289 -858 -691 -1141 -1175 -67 -114 -182 -351 -214 -440 -12 -33 -25 -69 -30
-80 -14 -31 -37 -101 -70 -210 -26 -86 -36 -124 -56 -215 -2 -8 -8 -35 -14
-60 -5 -25 -13 -67 -17 -95 -3 -27 -8 -52 -9 -55 -2 -3 -7 -37 -10 -75 -4 -39
-8 -72 -10 -75 -2 -4 -7 -51 -12 -105 -14 -179 -7 -536 12 -665 2 -14 7 -45
10 -70 5 -42 21 -138 30 -185 15 -80 25 -128 29 -134 3 -4 8 -23 11 -42 3 -19
12 -55 21 -80 8 -25 16 -55 18 -65 5 -23 53 -169 66 -199 5 -11 20 -51 35 -90
88 -232 302 -606 460 -803 181 -227 438 -486 575 -582 19 -13 37 -27 40 -30 4
-6 96 -73 147 -108 273 -187 562 -328 873 -426 170 -54 168 -53 270 -76 396
-89 781 -108 1190 -59 260 30 647 132 835 219 11 5 53 23 93 39 68 28 208 99
327 166 28 15 106 65 175 110 298 197 568 445 792 730 61 78 210 296 250 365
50 89 121 221 123 230 1 3 19 41 39 85 109 229 210 555 251 805 3 19 7 46 10
60 3 14 7 45 10 70 3 25 7 56 10 69 25 130 25 639 0 781 -3 14 -7 45 -10 70
-3 25 -10 70 -15 100 -5 30 -12 71 -15 90 -12 73 -76 310 -115 427 -183 553
-536 1078 -988 1471 -91 79 -362 282 -377 282 -2 0 -23 13 -47 29 -71 48 -144
88 -313 170 -373 182 -760 290 -1180 327 -72 6 -462 13 -468 8z"/>
</g>
</svg>
